<svg width="24" height="24" viewBox="0 0 24 24" fill="none" xmlns="http://www.w3.org/2000/svg">
<rect width="24" height="24" fill="white"/>
<g clip-path="url(#clip0_64_267)">
<path d="M12 3C7.02948 3 3 7.02948 3 12C3 16.2206 5.90592 19.7623 9.82596 20.735V14.7504H7.97016V12H9.82596V10.8149C9.82596 7.75164 11.2123 6.3318 14.2198 6.3318C14.79 6.3318 15.7739 6.44376 16.1764 6.55536V9.04836C15.964 9.02604 15.595 9.01488 15.1367 9.01488C13.661 9.01488 13.0908 9.57396 13.0908 11.0273V12H16.0306L15.5255 14.7504H13.0908V20.9341C17.5472 20.3959 21.0004 16.6015 21.0004 12C21 7.02948 16.9705 3 12 3Z" fill="#120000"/>
</g>
<defs>
<clipPath id="clip0_64_267">
<rect width="18" height="18" fill="white" transform="translate(3 3)"/>
</clipPath>
</defs>
</svg>
